<svg width="10" height="7" viewBox="0 0 10 7" fill="none" xmlns="http://www.w3.org/2000/svg">
<path fill-rule="evenodd" clip-rule="evenodd" d="M9.75201 0.92C9.75201 0.615139 9.50487 0.368 9.20001 0.368H8.64801C8.34315 0.368 8.09601 0.615139 8.09601 0.92V5.704C8.09601 6.00886 8.34315 6.256 8.64801 6.256H9.20001C9.50487 6.256 9.75201 6.00886 9.75201 5.704V0.92ZM6.07203 1.656H6.62403C6.92889 1.656 7.17603 1.90314 7.17603 2.208V5.704C7.17603 6.00886 6.92889 6.256 6.62403 6.256H6.07203C5.76717 6.256 5.52003 6.00886 5.52003 5.704V2.208C5.52003 1.90314 5.76717 1.656 6.07203 1.656ZM4.04799 2.944H3.49599C3.19113 2.944 2.94399 3.19114 2.94399 3.496V5.704C2.94399 6.00886 3.19113 6.256 3.49599 6.256H4.04799C4.35285 6.256 4.59999 6.00886 4.59999 5.704V3.496C4.59999 3.19114 4.35285 2.944 4.04799 2.944ZM2.02401 4.6C2.02401 4.29514 1.77687 4.048 1.47201 4.048H0.920012C0.61515 4.048 0.368012 4.29514 0.368012 4.6V5.704C0.368012 6.00886 0.61515 6.256 0.920012 6.256H1.47201C1.77687 6.256 2.02401 6.00886 2.02401 5.704V4.6Z" fill="black"/>
</svg>
