<svg width="12" height="13" viewBox="0 0 12 13" fill="none" xmlns="http://www.w3.org/2000/svg">
<path d="M5.61684 12.7335C5.85787 12.7279 6.08916 12.6373 6.26981 12.4777C6.45047 12.318 6.56884 12.0996 6.60399 11.8611H4.59143C4.62758 12.1061 4.75149 12.3296 4.94011 12.4901C5.12873 12.6506 5.36922 12.737 5.61684 12.7335Z" fill="black"/>
<path d="M11.2719 9.96906C10.9029 9.64014 10.5799 9.26307 10.3115 8.84799C10.0185 8.27504 9.84289 7.64934 9.79497 7.00761V5.11749C9.79341 4.8879 9.77294 4.65883 9.73375 4.43261C9.4326 4.37241 9.14317 4.26387 8.87669 4.11121C8.97827 4.43829 9.02986 4.77883 9.02974 5.12131V7.01144C9.07663 7.79428 9.29198 8.55777 9.66105 9.24974C9.92521 9.66832 10.2386 10.0537 10.5946 10.3976H0.795841C1.15183 10.0537 1.46527 9.66832 1.72942 9.24974C2.0985 8.55777 2.31384 7.79428 2.36074 7.01144V5.11749C2.35873 4.67468 2.44408 4.23583 2.61191 3.82605C2.77973 3.41628 3.02674 3.04363 3.33879 2.72945C3.65084 2.41527 4.02179 2.16573 4.43041 1.99512C4.83903 1.8245 5.2773 1.73616 5.72011 1.73516C6.36817 1.73568 7.00168 1.92733 7.54136 2.28613C7.48186 2.06765 7.44847 1.84289 7.44188 1.61655V1.3755C7.04237 1.17898 6.61318 1.0497 6.17159 0.992888V0.510792C6.17159 0.375322 6.11778 0.2454 6.02199 0.149608C5.92619 0.0538155 5.79627 0 5.6608 0C5.52533 0 5.39541 0.0538155 5.29962 0.149608C5.20383 0.2454 5.15001 0.375322 5.15001 0.510792V1.01202C4.16122 1.1515 3.25628 1.644 2.60226 2.39859C1.94823 3.15318 1.58928 4.11891 1.59168 5.11749V7.00761C1.54376 7.64934 1.36815 8.27504 1.07515 8.84799C0.811483 9.26212 0.493649 9.63914 0.130089 9.96906C0.0892763 10.0049 0.0565665 10.049 0.034136 10.0985C0.0117056 10.148 6.87929e-05 10.2017 0 10.256V10.7764C0 10.8779 0.0403112 10.9752 0.112066 11.0469C0.18382 11.1187 0.28114 11.159 0.382616 11.159H11.0193C11.1208 11.159 11.2181 11.1187 11.2899 11.0469C11.3616 10.9752 11.402 10.8779 11.402 10.7764V10.256C11.4019 10.2017 11.3902 10.148 11.3678 10.0985C11.3454 10.049 11.3127 10.0049 11.2719 9.96906Z" fill="black"/>
<path d="M9.5653 4.20879C10.6219 4.20879 11.4784 3.35227 11.4784 2.29571C11.4784 1.23914 10.6219 0.382629 9.5653 0.382629C8.50874 0.382629 7.65222 1.23914 7.65222 2.29571C7.65222 3.35227 8.50874 4.20879 9.5653 4.20879Z" fill="#FF0000"/>
</svg>
