<svg width="10" height="10" viewBox="0 0 10 10" fill="none" xmlns="http://www.w3.org/2000/svg">
<path fill-rule="evenodd" clip-rule="evenodd" d="M2.3515 7.2061L2.21324 6.88327C1.97086 6.31735 1.83333 5.67882 1.83333 5C1.83333 2.55513 3.57745 0.722222 5.55556 0.722222C7.53366 0.722222 9.27778 2.55513 9.27778 5C9.27778 7.44487 7.53366 9.27778 5.55556 9.27778C4.98296 9.27778 4.43978 9.12928 3.95209 8.86064L3.74133 8.74455L3.50306 8.77806L1.32401 9.08449L2.18296 7.51421L2.3515 7.2061ZM0.432195 9.2099L0 10L0.891813 9.87459L3.60363 9.49324C4.19284 9.8178 4.85528 10 5.55556 10C8.01015 10 10 7.76142 10 5C10 2.23858 8.01015 0 5.55556 0C3.10096 0 1.11111 2.23858 1.11111 5C1.11111 5.77661 1.2685 6.51187 1.54934 7.16761L0.432195 9.2099Z" fill="#F24F04"/>
</svg>
