<svg width="10" height="10" viewBox="0 0 10 10" fill="none" xmlns="http://www.w3.org/2000/svg">
<path d="M8.33333 0H1.66667C1.22464 0 0.800716 0.131696 0.488155 0.366117C0.175595 0.600537 0 0.918479 0 1.25V8.75C0 9.08152 0.175595 9.39946 0.488155 9.63388C0.800716 9.8683 1.22464 10 1.66667 10H8.33333C8.77536 10 9.19928 9.8683 9.51184 9.63388C9.8244 9.39946 10 9.08152 10 8.75V1.25C10 0.918479 9.8244 0.600537 9.51184 0.366117C9.19928 0.131696 8.77536 0 8.33333 0ZM2.5 2.5H7.5C7.61051 2.5 7.71649 2.53292 7.79463 2.59153C7.87277 2.65013 7.91667 2.72962 7.91667 2.8125C7.91667 2.89538 7.87277 2.97487 7.79463 3.03347C7.71649 3.09208 7.61051 3.125 7.5 3.125H2.5C2.38949 3.125 2.28351 3.09208 2.20537 3.03347C2.12723 2.97487 2.08333 2.89538 2.08333 2.8125C2.08333 2.72962 2.12723 2.65013 2.20537 2.59153C2.28351 2.53292 2.38949 2.5 2.5 2.5ZM2.08333 4.0625C2.08333 3.97962 2.12723 3.90013 2.20537 3.84153C2.28351 3.78292 2.38949 3.75 2.5 3.75H7.5C7.61051 3.75 7.71649 3.78292 7.79463 3.84153C7.87277 3.90013 7.91667 3.97962 7.91667 4.0625C7.91667 4.14538 7.87277 4.22487 7.79463 4.28347C7.71649 4.34208 7.61051 4.375 7.5 4.375H2.5C2.38949 4.375 2.28351 4.34208 2.20537 4.28347C2.12723 4.22487 2.08333 4.14538 2.08333 4.0625ZM2.5 5H7.5C7.61051 5 7.71649 5.03292 7.79463 5.09153C7.87277 5.15013 7.91667 5.22962 7.91667 5.3125C7.91667 5.39538 7.87277 5.47487 7.79463 5.53347C7.71649 5.59208 7.61051 5.625 7.5 5.625H2.5C2.38949 5.625 2.28351 5.59208 2.20537 5.53347C2.12723 5.47487 2.08333 5.39538 2.08333 5.3125C2.08333 5.22962 2.12723 5.15013 2.20537 5.09153C2.28351 5.03292 2.38949 5 2.5 5ZM2.5 6.25H5C5.11051 6.25 5.21649 6.28292 5.29463 6.34153C5.37277 6.40013 5.41667 6.47962 5.41667 6.5625C5.41667 6.64538 5.37277 6.72487 5.29463 6.78347C5.21649 6.84208 5.11051 6.875 5 6.875H2.5C2.38949 6.875 2.28351 6.84208 2.20537 6.78347C2.12723 6.72487 2.08333 6.64538 2.08333 6.5625C2.08333 6.47962 2.12723 6.40013 2.20537 6.34153C2.28351 6.28292 2.38949 6.25 2.5 6.25Z" fill="white"/>
</svg>
