<svg width="10" height="10" viewBox="0 0 10 10" fill="none" xmlns="http://www.w3.org/2000/svg">
<path d="M5 5C5.66304 5 6.29893 4.73661 6.76777 4.26777C7.23661 3.79893 7.5 3.16304 7.5 2.5C7.5 1.83696 7.23661 1.20107 6.76777 0.732233C6.29893 0.263392 5.66304 0 5 0C4.33696 0 3.70107 0.263392 3.23223 0.732233C2.76339 1.20107 2.5 1.83696 2.5 2.5C2.5 3.16304 2.76339 3.79893 3.23223 4.26777C3.70107 4.73661 4.33696 5 5 5ZM6.66667 2.5C6.66667 2.94203 6.49107 3.36595 6.17851 3.67851C5.86595 3.99107 5.44203 4.16667 5 4.16667C4.55797 4.16667 4.13405 3.99107 3.82149 3.67851C3.50893 3.36595 3.33333 2.94203 3.33333 2.5C3.33333 2.05797 3.50893 1.63405 3.82149 1.32149C4.13405 1.00893 4.55797 0.833333 5 0.833333C5.44203 0.833333 5.86595 1.00893 6.17851 1.32149C6.49107 1.63405 6.66667 2.05797 6.66667 2.5ZM10 9.16667C10 10 9.16667 10 9.16667 10H0.833333C0.833333 10 0 10 0 9.16667C0 8.33333 0.833333 5.83333 5 5.83333C9.16667 5.83333 10 8.33333 10 9.16667ZM9.16667 9.16333C9.16583 8.95833 9.03833 8.34167 8.47333 7.77667C7.93 7.23333 6.9075 6.66667 5 6.66667C3.09167 6.66667 2.07 7.23333 1.52667 7.77667C0.961667 8.34167 0.835 8.95833 0.833333 9.16333H9.16667Z" fill="#EE5500"/>
</svg>
