<svg width="12" height="9" viewBox="0 0 12 9" fill="none" xmlns="http://www.w3.org/2000/svg">
<path fill-rule="evenodd" clip-rule="evenodd" d="M5.70416 1.97278C6.93221 1.97284 8.11331 2.43524 9.00333 3.26443C9.07035 3.32845 9.17747 3.32764 9.24348 3.26262L9.88414 2.62902C9.91756 2.59604 9.9362 2.55137 9.93592 2.50489C9.93564 2.45841 9.91648 2.41396 9.88266 2.38137C7.54664 0.187534 3.8613 0.187534 1.52528 2.38137C1.49144 2.41394 1.47224 2.45838 1.47193 2.50485C1.47162 2.55133 1.49022 2.59601 1.52362 2.62902L2.16446 3.26262C2.23043 3.32774 2.33763 3.32855 2.40461 3.26443C3.29475 2.43519 4.47598 1.97278 5.70416 1.97278ZM5.70329 4.0293C6.37879 4.02925 7.03019 4.2813 7.5309 4.73646C7.59863 4.80105 7.70531 4.79965 7.77133 4.7333L8.41197 4.08351C8.44571 4.04942 8.46443 4.00319 8.46394 3.95514C8.46345 3.90709 8.4438 3.86125 8.40938 3.82786C6.8846 2.40405 4.52328 2.40405 2.9985 3.82786C2.96406 3.86125 2.94441 3.90712 2.94396 3.95518C2.94351 4.00324 2.96229 4.04947 2.9961 4.08351L3.63656 4.7333C3.70257 4.79965 3.80926 4.80105 3.87698 4.73646C4.37737 4.2816 5.02824 4.02958 5.70329 4.0293ZM6.99196 5.53272C6.99294 5.57989 6.97401 5.62537 6.93962 5.65841L5.82747 6.75752C5.79487 6.78982 5.75042 6.808 5.70404 6.808C5.65767 6.808 5.61322 6.78982 5.58062 6.75752L4.46828 5.65841C4.43392 5.62534 4.41501 5.57985 4.41603 5.53268C4.41705 5.48551 4.4379 5.44084 4.47366 5.40922C5.18392 4.82093 6.22416 4.82093 6.93442 5.40922C6.97016 5.44087 6.99097 5.48555 6.99196 5.53272Z" fill="black"/>
</svg>
